<?xml version="1.0" encoding="utf-8"?>
<!-- Generator: Adobe Illustrator 27.9.0, SVG Export Plug-In . SVG Version: 6.00 Build 0)  -->
<svg version="1.1" id="圖層_1" xmlns="http://www.w3.org/2000/svg" xmlns:xlink="http://www.w3.org/1999/xlink" x="0px" y="0px"
	 viewBox="0 0 32 32" style="enable-background:new 0 0 32 32;" xml:space="preserve">
<style type="text/css">
	.st0{fill:#FFFFFF;}
</style>
<path class="st0" d="M29.1,14L29.1,14l-11.2,0l0-11.1c0-0.5-0.2-1-0.6-1.4C17,1.2,16.5,1,15.9,1c-0.5,0-1,0.2-1.4,0.6
	C14.2,1.9,14,2.4,14,2.9L14,14l-11.2,0c-1.1,0-1.9,0.9-1.9,2c0,1,0.9,1.8,1.9,1.9l11.1,0L14,29c0,1.1,0.8,2,1.8,2l0.1,0h0
	c0.5,0,1-0.2,1.4-0.6c0.4-0.4,0.6-0.8,0.6-1.4V17.9l11.1,0c0.5,0,1-0.2,1.4-0.5C30.8,17,31,16.6,31,16C31,15,30.2,14.1,29.1,14z"/>
</svg>
