<?xml version="1.0" encoding="utf-8"?>
<!-- Generator: Adobe Illustrator 27.9.0, SVG Export Plug-In . SVG Version: 6.00 Build 0)  -->
<svg version="1.1" id="close" xmlns="http://www.w3.org/2000/svg" xmlns:xlink="http://www.w3.org/1999/xlink" x="0px" y="0px"
	 viewBox="0 0 31.9 31.9" style="enable-background:new 0 0 31.9 31.9;" xml:space="preserve">
<style type="text/css">
	.st0{fill:#FFFFFF;}
</style>
<path class="st0" d="M30.5,27.8L18.5,15.9L30.4,4.1c0.3-0.3,0.5-0.8,0.5-1.3c0-0.5-0.2-0.9-0.5-1.3c-0.7-0.7-1.9-0.7-2.6,0
	L15.9,13.3L4,1.5C3.3,0.8,2.2,0.9,1.5,1.6c-0.6,0.7-0.6,1.8,0,2.5l11.8,11.9L1.5,27.8c-0.7,0.7-0.8,1.8-0.1,2.5l0.1,0.1
	c0.3,0.4,0.8,0.5,1.3,0.5c0.5,0,0.9-0.2,1.3-0.5l11.9-11.9l11.9,11.8c0.7,0.7,1.8,0.8,2.6,0C31.1,29.7,31.1,28.6,30.5,27.8z"/>
</svg>
