<?xml version="1.0" encoding="utf-8"?>
<!-- Generator: Adobe Illustrator 27.9.0, SVG Export Plug-In . SVG Version: 6.00 Build 0)  -->
<svg version="1.1" id="圖層_1" xmlns="http://www.w3.org/2000/svg" xmlns:xlink="http://www.w3.org/1999/xlink" x="0px" y="0px"
	 viewBox="0 0 32 32" style="enable-background:new 0 0 32 32;" xml:space="preserve">
<style type="text/css">
	.st0{fill:#FFFFFF;}
</style>
<path class="st0" d="M16,32c8.8,0,16-7.2,16-16S24.8,0,16,0S0,7.2,0,16S7.2,32,16,32z M3.2,17.5h6.6c0,2.7,0.4,5.4,1,8
	c0.2,0.9,0.5,1.8,0.9,2.7C7.1,26.5,3.8,22.4,3.2,17.5z M16,3.6c1.6,0,2.9,4.7,3.1,10.8h-6.2C13.1,8.3,14.4,3.6,16,3.6z M19.1,17.5
	c-0.2,6.1-1.5,10.8-3.1,10.8s-2.9-4.7-3.1-10.8H19.1z M20.3,28.2c0.4-0.9,0.7-1.7,0.9-2.7c0.6-2.6,0.9-5.3,1-8h6.6
	C28.2,22.4,24.9,26.5,20.3,28.2z M28.8,14.5h-6.6c0-2.7-0.4-5.4-1-8c-0.2-0.9-0.5-1.8-0.9-2.7C24.9,5.5,28.2,9.6,28.8,14.5z
	 M11.7,3.8c-0.4,0.9-0.7,1.7-0.9,2.7c-0.6,2.6-0.9,5.3-1,8H3.2C3.8,9.6,7.1,5.5,11.7,3.8z"/>
</svg>
