<?xml version="1.0" encoding="utf-8"?>
<!-- Generator: Adobe Illustrator 27.9.0, SVG Export Plug-In . SVG Version: 6.00 Build 0)  -->
<svg version="1.1" id="圖層_1" xmlns="http://www.w3.org/2000/svg" xmlns:xlink="http://www.w3.org/1999/xlink" x="0px" y="0px"
	 viewBox="0 0 32 32" style="enable-background:new 0 0 32 32;" xml:space="preserve">
<style type="text/css">
	.st0{fill:#FFFFFF;}
</style>
<g id="Livello_1_1_">
</g>
<g>
	<path class="st0" d="M14,28H4V15h10V2H6C5.6,2,5.2,2.3,5,2.7L2,13.8c0,0,0,0.1,0,0.1v15c0,0.6,0.4,1,1,1h11c0.6,0,1-0.4,1-1
		C15,28.4,14.6,28,14,28L14,28z"/>
	<path class="st0" d="M26,17c0,0.6,0.4,1,1,1s1-0.4,1-1v-3c0-0.1,0-0.1,0-0.1L25,2.7C24.8,2.3,24.4,2,24,2h-8v13h10L26,17z"/>
	<path class="st0" d="M25,20h-6.6l1.3-1.3c0.4-0.4,0.4-1,0-1.4c-0.4-0.4-1-0.4-1.4,0l-3,3c-0.4,0.4-0.4,1,0,1.4l3,3
		c0.4,0.4,1,0.4,1.4,0c0.4-0.4,0.4-1,0-1.4L18.4,22H25c1.6,0,3,1.4,3,3c0,1.6-1.4,3-3,3h-6c-0.6,0-1,0.4-1,1c0,0.6,0.4,1,1,1h6
		c2.8,0,5-2.2,5-5S27.8,20,25,20L25,20z"/>
</g>
</svg>
