<?xml version="1.0" encoding="utf-8"?>
<!-- Generator: Adobe Illustrator 27.9.0, SVG Export Plug-In . SVG Version: 6.00 Build 0)  -->
<svg version="1.1" id="圖層_1" xmlns="http://www.w3.org/2000/svg" xmlns:xlink="http://www.w3.org/1999/xlink" x="0px" y="0px"
	 viewBox="0 0 32 32" style="enable-background:new 0 0 32 32;" xml:space="preserve">
<style type="text/css">
	.st0{fill:#920783;}
</style>
<g transform="translate(0,-952.36218)">
	<path class="st0" d="M3.4,956.9c-1.9,0-3.4,1.6-3.4,3.5v15.8c0,1.9,1.5,3.5,3.4,3.5h25.1c1.9,0,3.4-1.6,3.4-3.5v-15.8
		c0-1.9-1.5-3.5-3.4-3.5H3.4L3.4,956.9z M3.6,959.2h24.8l-11.7,11.1c-0.4,0.4-0.9,0.4-1.3,0L3.6,959.2z M2.3,961.1l7.8,7.4l-7.8,7.8
		V961.1z M29.7,961.1v15.1l-7.8-7.8L29.7,961.1z M20.3,970.1l7.4,7.4H4.3l7.4-7.4l2,1.9c1.2,1.2,3.2,1.2,4.5,0
		C18.2,972,20.3,970.1,20.3,970.1z"/>
</g>
</svg>
