<?xml version="1.0" encoding="utf-8"?>
<!-- Generator: Adobe Illustrator 27.9.0, SVG Export Plug-In . SVG Version: 6.00 Build 0)  -->
<svg version="1.1" id="圖層_1" xmlns="http://www.w3.org/2000/svg" xmlns:xlink="http://www.w3.org/1999/xlink" x="0px" y="0px"
	 viewBox="0 0 30 30" style="enable-background:new 0 0 30 30;" xml:space="preserve">
<style type="text/css">
	.st0{fill:#FFFFFF;}
</style>
<g>
	<path class="st0" d="M25.6,6.1h-1.7v-5c0-0.6-0.5-1.1-1.1-1.1H7.2C6.6,0,6.1,0.5,6.1,1.1v5H4.4C2,6.1,0,8.1,0,10.6v10
		C0,23,2,25,4.4,25h1.7v3.9c0,0.6,0.5,1.1,1.1,1.1h15.6c0.6,0,1.1-0.5,1.1-1.1V25h1.7c2.4,0,4.4-2,4.4-4.4v-10
		C30,8.1,28,6.1,25.6,6.1z M8.3,2.2h13.3v3.9H8.3L8.3,2.2z M21.7,27.8H8.3v-10h13.3V27.8z M27.8,20.6c0,1.2-1,2.2-2.2,2.2h-1.7v-6.1
		c0-0.6-0.5-1.1-1.1-1.1H7.2c-0.6,0-1.1,0.5-1.1,1.1v6.1H4.4c-1.2,0-2.2-1-2.2-2.2v-10c0-1.2,1-2.2,2.2-2.2h21.1
		c1.2,0,2.2,1,2.2,2.2V20.6z"/>
	<path class="st0" d="M18.9,19.4h-7.8c-0.6,0-1.1,0.5-1.1,1.1c0,0.6,0.5,1.1,1.1,1.1h7.8c0.6,0,1.1-0.5,1.1-1.1
		C20,19.9,19.5,19.4,18.9,19.4z"/>
	<path class="st0" d="M18.9,23.9h-7.8c-0.6,0-1.1,0.5-1.1,1.1c0,0.6,0.5,1.1,1.1,1.1h7.8c0.6,0,1.1-0.5,1.1-1.1
		C20,24.4,19.5,23.9,18.9,23.9z"/>
	<path class="st0" d="M25.6,11.1h-2.2c-0.6,0-1.1,0.5-1.1,1.1c0,0.6,0.5,1.1,1.1,1.1h2.2c0.6,0,1.1-0.5,1.1-1.1
		C26.7,11.6,26.2,11.1,25.6,11.1z"/>
</g>
</svg>
