<?xml version="1.0" encoding="utf-8"?>
<!-- Generator: Adobe Illustrator 27.9.0, SVG Export Plug-In . SVG Version: 6.00 Build 0)  -->
<svg version="1.1" id="圖層_1" xmlns="http://www.w3.org/2000/svg" xmlns:xlink="http://www.w3.org/1999/xlink" x="0px" y="0px"
	 viewBox="0 0 32 32" style="enable-background:new 0 0 32 32;" xml:space="preserve">
<g id="Livello_1_1_">
</g>
<g id="Livello_1_00000014628521011639463980000011523441390664332971_">
</g>
<g>
	<path d="M13.9,28.8H3.1V14.9h10.7V1H5.3c-0.5,0-0.9,0.3-1,0.8L1,13.7c0,0,0,0.1,0,0.2v16.1C1,30.5,1.5,31,2.1,31h11.8
		c0.6,0,1.1-0.5,1.1-1.1C14.9,29.3,14.4,28.8,13.9,28.8L13.9,28.8z"/>
	<path d="M26.7,17.1c0,0.6,0.5,1.1,1.1,1.1c0.6,0,1.1-0.5,1.1-1.1v-3.2c0-0.1,0-0.1,0-0.2L25.6,1.8c-0.1-0.5-0.5-0.8-1-0.8H16v13.9
		h10.7L26.7,17.1z"/>
	<path d="M25.6,20.3h-7.1l1.4-1.4c0.4-0.4,0.4-1.1,0-1.5c-0.4-0.4-1.1-0.4-1.5,0l-3.2,3.2c-0.4,0.4-0.4,1.1,0,1.5l3.2,3.2
		c0.4,0.4,1.1,0.4,1.5,0c0.4-0.4,0.4-1.1,0-1.5l-1.4-1.4h7.1c1.8,0,3.2,1.4,3.2,3.2s-1.4,3.2-3.2,3.2h-6.4c-0.6,0-1.1,0.5-1.1,1.1
		s0.5,1.1,1.1,1.1h6.4c3,0,5.4-2.4,5.4-5.4S28.6,20.3,25.6,20.3L25.6,20.3z"/>
</g>
</svg>
