<?xml version="1.0" encoding="utf-8"?>
<!-- Generator: Adobe Illustrator 27.9.0, SVG Export Plug-In . SVG Version: 6.00 Build 0)  -->
<svg version="1.1" id="close" xmlns="http://www.w3.org/2000/svg" xmlns:xlink="http://www.w3.org/1999/xlink" x="0px" y="0px"
	 viewBox="0 0 32 32" style="enable-background:new 0 0 32 32;" xml:space="preserve">
<path d="M30.5,27.9L18.6,16L30.4,4.1c0.3-0.3,0.5-0.8,0.5-1.3c0-0.5-0.2-0.9-0.5-1.3c-0.7-0.7-1.9-0.7-2.6,0L16,13.4L4.1,1.5
	C3.4,0.9,2.2,0.9,1.5,1.6c-0.6,0.7-0.6,1.8,0,2.5L13.4,16L1.6,27.8c-0.7,0.7-0.8,1.8-0.1,2.5l0.1,0.1C1.9,30.8,2.4,31,2.8,31
	c0.5,0,0.9-0.2,1.3-0.5L16,18.6l11.9,11.8c0.7,0.7,1.8,0.8,2.6,0C31.2,29.8,31.2,28.6,30.5,27.9z"/>
</svg>
