<?xml version="1.0" encoding="utf-8"?>
<!-- Generator: Adobe Illustrator 27.9.0, SVG Export Plug-In . SVG Version: 6.00 Build 0)  -->
<svg version="1.1" id="圖層_1" xmlns="http://www.w3.org/2000/svg" xmlns:xlink="http://www.w3.org/1999/xlink" x="0px" y="0px"
	 viewBox="0 0 100 100" style="enable-background:new 0 0 100 100;" xml:space="preserve">
<style type="text/css">
	.st0{display:none;}
	.st1{display:inline;}
	.st2{fill:#3C579E;}
	.st3{fill:#FFFFFF;}
	.st4{display:inline;fill:#0E9FDB;}
	.st5{fill:#C01E20;}
	.st6{display:inline;fill:#FFFFFF;}
	.st7{fill:#D45141;}
	.st8{fill:#1070A8;}
	.st9{fill:url(#SVGID_1_);}
</style>
<g id="圖層_2_00000013896032815178791890000007046600546759080103_" class="st0">
	<g class="st1">
		<circle class="st2" cx="50" cy="50" r="50"/>
		<path class="st3" d="M44,81.2V53H33.9V42.9H44v-9.3c0-9.4,5.5-14.9,13.9-14.9c4,0,7.3,0.4,8.3,0.6v10.5h-6.7
			c-4.5,0-5.4,2.3-5.4,5.4v7.7h11.7L64,53H54v28.2H44z"/>
	</g>
</g>
<g id="圖層_3" class="st0">
	<path class="st4" d="M56.9,30.5c-4.4,1.6-7.1,5.7-6.8,10.2l0.1,1.7l-1.7-0.2c-6.4-0.8-11.9-3.6-16.6-8.2l-2.3-2.3L29,33.4
		c-1.3,3.8-0.5,7.8,2.2,10.5c1.4,1.5,1.1,1.7-1.3,0.8c-0.8-0.3-1.6-0.5-1.6-0.4c-0.2,0.2,0.6,3.5,1.3,4.7c0.9,1.8,2.8,3.5,4.8,4.5
		l1.7,0.8h-2c-2,0-2,0-1.8,0.8c0.7,2.3,3.5,4.7,6.5,5.8l2.2,0.7l-1.9,1.1c-2.8,1.6-6.1,2.5-9.4,2.6c-1.6,0-2.9,0.2-2.9,0.3
		c0,0.4,4.3,2.3,6.7,3.1c7.4,2.3,16.3,1.3,22.9-2.6c4.7-2.8,9.4-8.3,11.6-13.7c1.2-2.9,2.4-8.1,2.4-10.6c0-1.6,0.1-1.8,2.1-3.8
		c1.2-1.1,2.2-2.4,2.4-2.7c0.3-0.7,0.3-0.7-1.5-0.1c-3,1.1-3.4,0.9-1.9-0.7c1.1-1.1,2.4-3.2,2.4-3.8c0-0.1-0.5,0.1-1.1,0.4
		c-0.6,0.4-2,0.9-3.1,1.2l-1.9,0.6l-1.8-1c-0.9-0.6-2.3-1.3-3-1.6C61.3,29.8,58.6,29.9,56.9,30.5z M50,100C22.4,100,0,77.6,0,50
		S22.4,0,50,0s50,22.4,50,50S77.6,100,50,100z"/>
</g>
<g id="圖層_4" class="st0">
	<g class="st1">
		<circle class="st5" cx="50" cy="50" r="50"/>
	</g>
	<path class="st6" d="M80.6,37.5c0,0-0.6-4.3-2.5-6.2c-2.4-2.5-5-2.5-6.3-2.6C63.1,28,50,28,50,28l0,0c0,0-13.1,0-21.9,0.6
		c-1.2,0.1-3.9,0.2-6.3,2.6c-1.9,1.9-2.5,6.2-2.5,6.2s-0.6,5.1-0.6,10.1v4.7c0,5.1,0.6,10.1,0.6,10.1s0.6,4.3,2.5,6.2
		c2.4,2.5,5.5,2.4,6.9,2.7C33.8,71.8,50,72,50,72s13.1,0,21.9-0.7c1.2-0.1,3.9-0.2,6.3-2.6c1.9-1.9,2.5-6.2,2.5-6.2
		s0.6-5.1,0.6-10.1v-4.7C81.2,42.6,80.6,37.5,80.6,37.5 M42.8,58.9V39.7l18.5,9.6L42.8,58.9z"/>
</g>
<g id="圖層_5" class="st0">
	<g class="st1">
		<circle class="st7" cx="50" cy="50" r="50"/>
		<g>
			<g>
				<path class="st3" d="M38.6,76.5c-14.9,0-26.9-11.9-26.9-26.5s12.1-26.5,26.9-26.5c6.5,0,12.8,2.3,17.7,6.5l-6.9,7.7
					c-3-2.6-6.8-4-10.8-4c-9.1,0-16.5,7.3-16.5,16.2s7.4,16.2,16.5,16.2c7.7,0,12.7-3.7,14.4-10.3H38.7V45.6H64v5.1
					C64,66.1,53.8,76.5,38.6,76.5z"/>
			</g>
			<polygon class="st3" points="92.1,45.7 84.3,45.7 84.3,37.8 78.1,37.8 78.1,45.7 70.3,45.7 70.3,51.9 78.1,51.9 78.1,59.7 
				84.3,59.7 84.3,51.9 92.1,51.9 			"/>
		</g>
	</g>
</g>
<g id="圖層_6" class="st0">
	<g class="st1">
		<circle class="st8" cx="50" cy="50" r="50"/>
	</g>
	<g class="st1">
		<path class="st3" d="M34.5,78.1H22.8V40.6h11.7V78.1z M28.6,35.4c-3.7,0-6.8-3-6.8-6.8c0-3.7,3-6.8,6.8-6.8c3.7,0,6.8,3,6.8,6.8
			C35.4,32.4,32.4,35.4,28.6,35.4z M78.1,78.1H66.5V59.8c0-4.3-0.1-9.9-6.1-9.9c-6.1,0-7,4.7-7,9.6V78H41.8V40.6H53v5.1h0.2
			c1.6-2.9,5.4-6.1,11-6.1c11.8,0,14,7.8,14,17.9L78.1,78.1L78.1,78.1z"/>
	</g>
</g>
<g id="圖層_7" class="st0">
	<g class="st1">
		<g>
			
				<linearGradient id="SVGID_1_" gradientUnits="userSpaceOnUse" x1="-325.1261" y1="240.8983" x2="-267.7635" y2="322.8205" gradientTransform="matrix(1 0 0 -1 346.4448 331.8594)">
				<stop  offset="0" style="stop-color:#FFB900"/>
				<stop  offset="1" style="stop-color:#9100EB"/>
			</linearGradient>
			<circle class="st9" cx="50" cy="50" r="50"/>
		</g>
		<g>
			<g>
				<path class="st3" d="M64.3,81.2H35.7c-9.3,0-16.9-7.6-16.9-16.9V35.7c0-9.3,7.6-16.9,16.9-16.9h28.6c9.3,0,16.9,7.6,16.9,16.9
					v28.6C81.2,73.7,73.7,81.2,64.3,81.2z M35.7,24C29.2,24,24,29.2,24,35.7v28.6C24,70.8,29.2,76,35.7,76h28.6
					C70.8,76,76,70.8,76,64.3V35.7C76,29.2,70.8,24,64.3,24H35.7L35.7,24z"/>
			</g>
			<g>
				<path class="st3" d="M50,65.6c-8.6,0-15.6-7-15.6-15.6s7-15.6,15.6-15.6s15.6,7,15.6,15.6S58.6,65.6,50,65.6z M50,39.6
					c-5.7,0-10.4,4.7-10.4,10.4S44.3,60.4,50,60.4S60.4,55.7,60.4,50S55.7,39.6,50,39.6z"/>
			</g>
			<g>
				<circle class="st3" cx="66.6" cy="33.4" r="3.6"/>
			</g>
		</g>
	</g>
</g>
<g>
	<path class="st3" d="M80,5H35.8L14,26.7V89c0,3.3,2.7,6,6,6H80c3.3,0,6-2.7,6-6V11C86,7.7,83.3,5,80,5z M33.9,16.3v8.5h-8.5
		L33.9,16.3z M79.3,88.4H20.7v-57h14c3.3,0,5.9-2.6,5.9-5.9v-14h38.8L79.3,88.4L79.3,88.4z"/>
	<rect x="31.9" y="40.7" class="st3" width="36.1" height="6.7"/>
	<rect x="31.9" y="55.6" class="st3" width="36.1" height="6.7"/>
	<rect x="31.9" y="70.6" class="st3" width="36.1" height="6.7"/>
</g>
</svg>
