<?xml version="1.0" encoding="utf-8"?>
<!-- Generator: Adobe Illustrator 27.9.0, SVG Export Plug-In . SVG Version: 6.00 Build 0)  -->
<svg version="1.1" id="圖層_1" xmlns="http://www.w3.org/2000/svg" xmlns:xlink="http://www.w3.org/1999/xlink" x="0px" y="0px"
	 viewBox="0 0 531 88" style="enable-background:new 0 0 531 88;" xml:space="preserve">
<style type="text/css">
	.st0{fill:#36ABE3;}
	.st1{fill:#1A91D1;}
	.st2{fill:#1080C3;}
	.st3{fill-rule:evenodd;clip-rule:evenodd;fill:#379CCE;}
	.st4{fill:#3C3C3C;}
</style>
<g>
	<path class="st0" d="M78.4,21.8C50.5,43.4,5.2,50.6,4.8,50.7H4.6C4.2,48.5,4,46.3,4,44C4,21.5,22.3,3.2,44.8,3.2
		c14.2,0,26.7,7.2,34,18.2C78.6,21.6,78.5,21.7,78.4,21.8z"/>
	<path class="st1" d="M85.5,20.8c-0.1,0.1-1.3,2.2-4.1,5.4C73.4,35.7,52.6,55.3,11,67c-2.6-3.8-4.5-8-5.7-12.5
		c0,0,46.3-7.2,75.4-29.7C82.4,23.5,84,22.2,85.5,20.8z"/>
	<g>
		<path class="st2" d="M85.4,40.6c-0.1,0.2-14.1,27.2-48.8,43.3c2.6,0.5,5.4,0.8,8.2,0.8C67,84.8,85.1,67,85.5,44.8l0,0
			c0-0.3,0-0.5,0-0.8C85.5,42.9,85.5,41.7,85.4,40.6z"/>
		<path class="st2" d="M15,71.9C15,71.9,15.1,71.9,15,71.9c12.5,0.7,43.2-1.3,70.4-31.3c-0.3-3.7-1.1-7.2-2.3-10.5
			C62.9,61.8,9.5,71.4,9.5,71.4s1.7,0.3,4.7,0.5C14.5,71.9,14.7,71.9,15,71.9z"/>
	</g>
	<polygon class="st3" points="95.1,13 86,11.6 92,15.5 	"/>
	<polygon class="st3" points="85.5,19.1 89.9,19.4 90.7,18.9 93.5,16.5 97.3,13.3 102.3,9.1 105,8.6 104.1,11.2 98.9,15.3 
		98.4,26.7 95.1,18.4 91.5,21.2 90.9,25.8 	"/>
</g>
<g>
	<path class="st4" d="M112.5,49l-1.4-1.9c5-5.3,9-12.5,11.2-21.5l6.4,2.4C125.7,36,119.5,44.6,112.5,49z M149.8,61.6l-6,3.4
		c-0.8-2-1.8-4.3-2.9-6.6c-7,2.5-16.7,4.4-24.8,5.3l-1.6-6.8c2,0,4.1,0,6.2,0c2.9-5.2,5.7-12.6,7.1-18.8l6.7,2.5
		c-2.4,5.5-6.4,11.7-9.9,16.1c5.4-0.2,10.8-0.6,15-1c-1.1-2.3-2.4-4.5-3.5-6.6l2-1.5C142.6,51.6,146.8,56.6,149.8,61.6z M137.3,28
		h-7.1v-2.9h9.5c1.7,8.9,7.1,14.3,13.3,17.7l-4.5,6.2C142.4,44.5,138.5,36.5,137.3,28z"/>
	<path class="st4" d="M187.1,47.7h9.9c-0.2,5.5-0.7,10.1-1.3,12.9c-0.8,4.2-5.6,6.8-12,1.5l0.8-2c4.7,1.2,5.7,1.1,6.2-1.4
		c0.4-2,0.7-5,0.8-8.2h-4.9c-1.9,8.7-7.1,13.2-14.1,15l-0.9-2c5.8-3.2,8.6-6.8,9.8-13h-6.9v-2.7h7.3c0.1-1.1,0.2-2.3,0.3-3.5
		c-2,1-4.2,1.6-6.5,2.2l-0.5-1.7c-0.8,0.8-1.5,1.6-2.3,2.2l-1.5-1.1V60c0,4.4-4.3,7-11.3,2.9l0.6-2.1c4.6,0.8,5.7,0.5,5.7-1.7v-9.6
		c-1.6,3.2-3.9,6.3-7.2,9.1l-1.4-1.7c3.8-4.6,6.2-9.7,7.9-16.5h-7.2v-2.6h9.2c-1.7-2.6-3.7-5.1-5.4-7l1.3-1.5c1.6,0.9,3.1,1.9,4.6,3
		c1.3-1.5,2.3-3,3.2-4.7h-12V25h11.9l1.6-1l5,3.2c-2,2.5-4.9,5-7.7,6.8c0.7,0.7,1.4,1.4,2.1,2.1l-2.1,1.7h2.9l1.4-0.9l4.5,2.5
		c-0.8,1.6-2,3.3-3.3,4.7c3.8-1.5,6.7-3.4,8.9-5.7c-1.5-1.7-2.9-3.5-3.7-5.3c-1.1,1.4-2.3,2.7-3.6,3.7l-1.6-1.4
		c2.9-4.5,4.2-8.2,5.1-13l5.1,1.3c-0.4,1.2-0.9,2.5-1.5,3.8H198v2.7h-3.3c-0.9,3-2.4,5.6-4.3,7.8c2.4,1.2,5.3,2.2,8.6,2.9l-2.2,5.2
		c-3.4-0.9-6.8-2.8-9.6-5.1c-1.4,1.1-2.9,2-4.6,2.9h4.7C187.4,45.2,187.3,46.5,187.1,47.7z M173.1,40.4h-1.8v4.8
		C172,43.7,172.8,41.9,173.1,40.4z M186.8,35.7c1.1-1.7,1.9-3.5,2.4-5.5h-6.4l-0.4,0.6C183.7,32.8,185.1,34.4,186.8,35.7z"/>
	<path class="st4" d="M242,45.7V65h-5.7v-3.6h-23.1V65h-5.7V45.7h5.7v12.7h8.5V42.8h-12.2v-16h5.6v13h6.6V23.3h6v16.5h6.8v-13h5.6
		v15.9h-12.4v15.6h8.5V45.7H242z"/>
	<path class="st4" d="M289.5,24.5V65H284v-2h-25.7v2h-5.5V24.5H289.5z M284,27.3h-6c1.4,1.1,3.3,3.1,4.3,4.8l-2,1.2h2.8V36h-7.6
		c0.1,3.4,0.4,6.4,0.8,8.9c0.9-2.2,1.6-4.6,2.2-7.3l3.9,1.3c-1,4.1-2.7,8-5,11.3c0.6,1.5,1.2,2.5,2,2.9c0.7,0.4,1-1.1,1-5.6h2.1
		c1.5,9.2-0.1,11.6-3.2,11c-2.2-0.5-3.9-2.2-5.1-4.6c-2.3,2.3-5.1,4.1-8.3,5.4l-1-1.9c3.4-2.1,6-4.3,8.1-6.9
		c-1.2-4.1-1.7-9.2-1.9-14.5H259v-2.7h12.2c0-1.7-0.1-3.4-0.1-5h4.4c0,1.7,0,3.4,0,5h3.1c-0.8-1.8-1.7-3.6-2.4-5l1.5-1h-19.5v32.8
		H284V27.3z M259.7,56.7l-1.4-4.4c4.5-0.7,9.4-2.1,13-3.3l0.8,1.9C268.6,53.2,263.8,55.5,259.7,56.7z M260,38.4h10.2v10.1H260V38.4z
		 M263.8,46.1h2.8V41h-2.8V46.1z"/>
	<path class="st4" d="M310.3,35.3h6.8V38h-4.9l3.6,1.4c-0.9,1.5-2.6,3.8-4.3,5.5h4.8v2.8h-5.8v4.8h6.6v2.8h-6.6v9.8h-5.7v-9.8h-7.2
		v-2.8h7.2v-4.8h-6.1V45h3.7c-0.8-2-1.9-4.6-2.6-6.2L301,38h-3.3v-2.8h6.9v-3.9h-5.8v-2.8h5.8V23h5.6v5.5h5.9v2.8h-5.9L310.3,35.3
		L310.3,35.3z M302.1,38c1.8,1.6,3.9,4,4.9,5.8l-2.3,1.2h3.4c0.9-2.1,1.9-4.8,2.4-7H302.1z M338.3,59.8l-3.1,5.1
		c-1.9-1.3-3.9-2.9-5.6-4.9c-1.5,1.8-3.3,3.4-5.3,4.8L323,63v2.2h-5.5V25.1h18.1c0.1,3.7,0,6.8,0,9.4c-0.2,5.3-5.1,5.8-11.2,3.2
		l0.4-2.3c4.6,0.7,5.4,0,5.5-1.9c0.1-1.6,0.1-3.5,0.1-5.6h-7.3v13.9h7.3l1.2-1.1l4.9,1.5c-0.7,5.3-2,9.9-4.1,13.7
		C334.2,57.3,336.2,58.7,338.3,59.8z M327.4,56.9c-2-3.3-3.5-7.4-4.1-12.5h-0.2v18.2C324.9,60.8,326.3,58.9,327.4,56.9z M325.5,44.4
		c0.9,3.3,2.2,5.8,3.8,8c0.8-2.4,1.3-5,1.7-8H325.5z"/>
	<path class="st4" d="M384,41.4v2.9h-40v-2.9h17v-7.6h-7.4c-1.8,2.5-3.9,4.8-6,6.5l-1.7-1.6c2.9-4.1,5.3-10.1,6.5-15.6l5.8,1.8
		c-0.7,2.1-1.7,4.1-2.8,6.1h5.6v-8h6.1v8h13v2.9h-13v7.6L384,41.4L384,41.4z M349.5,48.1h29.2V65h-5.9v-2.8h-17.4v2.9h-5.9
		L349.5,48.1L349.5,48.1z M355.4,59.3h17.4V51h-17.4V59.3z"/>
	<path class="st4" d="M393.3,42l-2.9-4.5c3.4-1.6,6.8-3.5,9.7-5.7l1.5,1.5C399.4,36.5,396.7,39.4,393.3,42z M405.8,57.2l3.6,3
		c-4.4,2.4-11.1,4.3-17.8,5.1l-0.7-2.1c5.3-1.6,9.2-3.6,12.8-6H396V40.3h29v16.9C425,57.2,405.8,57.2,405.8,57.2z M399.5,31.1
		c-2.4-1.9-5.3-4-7.5-5.4l0.9-2c2.5,0.5,6.6,1.7,9.5,3.1L399.5,31.1z M401.6,32.8c2.2-2.7,3.8-6,4.9-10.3l4.9,1.1
		c-0.4,0.9-0.8,1.8-1.3,2.7H423l1.3-0.9l4.4,2.9c-1.9,2.3-4.2,4.1-6.5,5.5l-1.4-1.3c0.9-1.4,1.4-2.2,1.9-3.6h-4.9
		c-0.2,0.8-0.5,1.4-0.9,2.2c3.6,3.2,8,4.2,12.9,4.6l-1.8,4.8c-4.2-0.6-9.4-3.2-12.3-7.4c-2.9,4-7.7,6.4-14,6.8l-0.5-1.9
		c6.5-1.8,9.5-4.8,10.9-9.1h-3.7c-1.6,2.2-3.6,4.1-5.4,5.3L401.6,32.8z M401.8,45.1h17.4v-2.2h-17.4V45.1z M401.8,49.7h17.4v-2.2
		h-17.4V49.7z M401.8,54.6h17.4v-2.4h-17.4V54.6z M429.9,60.2l-2.4,5.3c-4.3-2.1-10.3-4.4-14.8-6l0.8-2.4
		C418.3,57.7,424.6,58.6,429.9,60.2z"/>
	<path class="st4" d="M453.9,33.6h-17v-2.9h7.4c-1.4-2.5-2.9-4.9-4-6.6l1.5-1.5c2.5,1.5,5.3,4,7.3,6.4l-2.4,1.8h7.1v2.8H453.9z
		 M438.3,49.6h14.3v14.8h-5v-2.5h-4.4v3h-4.9V49.6z M452.4,39.9h-14.1v-2.7h14.1V39.9z M438.3,43.2h14.1V46h-14.1V43.2z M443.2,59.1
		h4.4v-6.8h-4.4V59.1z M473,64.7c-5.5-1.9-5.8-12.4-5.8-27.9v-8.3h-4.4v13h3.6v2.8h-3.6V65h-5.6V44.2h-3.9v-2.8h3.9v-13h-4.1v-2.8
		h19.4v11.9c0,13.9,0.7,20.5,1.5,20.8c0.7,0.3,0.8-0.8,0.7-7.2h2.3C479.4,62.9,476.9,66,473,64.7z"/>
	<path class="st4" d="M488,51.5c0.3,4.6,0,10-0.8,13.2l-4.9-1.8c1.7-2.9,2.9-7.1,3.7-11.6L488,51.5z M522,25.2v35.2
		c0,4.7-4.7,6.4-11.9,2.2l0.6-2c5.8,0.9,6.4,0.5,6.4-1.8v-2.7c-1.4,1.5-3.1,1.9-5.7,1.9c-4.5,0-5.6-0.7-5.6-4.8v-5.9h-1.4v-2.6h4.9
		c-0.7-2-1.4-3.6-2-5.1l1-0.6h-4v-2.5h2.1c-0.5-2.4-1-4.6-1.8-6.9l1.9-0.9c1.4,1.9,2.7,4.2,3.7,6.6l-3.1,1.2h3.7
		c0.8-2.4,1.4-5,1.9-7.7l4.1,1.3c-1,2.3-2.1,4.5-3.3,6.4h3V39H510c1.3,1.4,2.4,3,3.4,4.7l-2.3,1h5.4v2.6h-6.2v5
		c0,1.5,0.5,1.6,1.9,1.6c1,0,1.9-0.1,3-1.1l1.9,2.4V27.9h-13.4V65h-4.8v-6l-3.9,1.5c-0.7-3-1.7-6.9-2.6-9.9l1.9-0.8
		c1.8,2.5,3.6,5.8,4.6,8.3v-9l-3.1,1.4c-0.3-1.1-0.6-2.4-1-3.6c-3.8,1.9-7.4,2.9-10.5,3.5l-1.3-5.1c1.1,0,2.2,0,3.2,0
		c1.5-2.1,2.9-4.6,4.2-7.2c-2.2,0.9-4.3,1.5-6.3,1.9l-1-5.1c0.9,0,1.6,0.1,2.4,0.1c1.3-3.7,2.3-7.7,3.2-12.3l5.4,1.4
		c-1.7,4.1-3.8,8-5.9,10.9c1.2,0,2.4-0.1,3.6-0.2c0.8-1.7,1.5-3.5,2.2-5.4l4.8,2.1v-6.3C498.8,25.2,522,25.2,522,25.2z M491,51
		c1.2,3.2,2.5,8.2,3.1,11.3l-4.8,0.7c0.1-3-0.1-8.2-0.3-11.6L491,51z M498.8,46.9V31.6c-2.4,4.8-5.9,10-9.3,13.6
		c1.5-0.1,3-0.3,4.4-0.5c-0.4-1-0.7-1.9-1-2.8l1.9-1C496.3,42.4,497.7,44.7,498.8,46.9z"/>
</g>
</svg>
