<svg version="1.2" xmlns="http://www.w3.org/2000/svg" viewBox="0 0 107 107" width="107" height="107"><style>.a{fill:#36abe3}.b{fill:#1a91d1}.c{fill:#1080c3}.d{fill:#379cce}.e{fill:#3c3c3c}</style><path class="a" d="m78.4 21.8c-27.9 21.6-73.2 28.8-73.6 28.9h-0.2c-0.4-2.2-0.6-4.4-0.6-6.7 0-22.5 18.3-40.8 40.8-40.8 14.2 0 26.7 7.2 34 18.2-0.2 0.2-0.3 0.3-0.4 0.4z"/><path class="b" d="m85.5 20.8c-0.1 0.1-1.3 2.2-4.1 5.4-8 9.5-28.8 29.1-70.4 40.8-2.6-3.8-4.5-8-5.7-12.5 0 0 46.3-7.2 75.4-29.7 1.7-1.3 3.3-2.6 4.8-4z"/><path class="c" d="m85.4 40.6c-0.1 0.2-14.1 27.2-48.8 43.3 2.6 0.5 5.4 0.8 8.2 0.8 22.2 0.1 40.3-17.7 40.7-39.9 0-0.3 0-0.5 0-0.8 0-1.1 0-2.3-0.1-3.4z"/><path class="c" d="m15 71.9c0 0 0.1 0 0 0 12.5 0.7 43.2-1.3 70.4-31.3-0.3-3.7-1.1-7.2-2.3-10.5-20.2 31.7-73.6 41.3-73.6 41.3 0 0 1.7 0.3 4.7 0.5 0.3 0 0.5 0 0.8 0z"/><path fill-rule="evenodd" class="d" d="m95.1 13l-9.1-1.4 6 3.9z"/><path fill-rule="evenodd" class="d" d="m85.5 19.1l4.4 0.3 0.8-0.5 2.8-2.4 3.8-3.2 5-4.2 2.7-0.5-0.9 2.6-5.2 4.1-0.5 11.4-3.3-8.3-3.6 2.8-0.6 4.6z"/><path class="e" d="m108.5 80l-1.4-1.9c5-5.3 9-12.5 11.2-21.5l6.4 2.4c-3 8-9.2 16.6-16.2 21zm37.3 12.6l-6 3.4c-0.8-2-1.8-4.3-2.9-6.6-7 2.5-16.7 4.4-24.8 5.3l-1.6-6.8c2 0 4.1 0 6.2 0 2.9-5.2 5.7-12.6 7.1-18.8l6.7 2.5c-2.4 5.5-6.4 11.7-9.9 16.1 5.4-0.2 10.8-0.6 15-1-1.1-2.3-2.4-4.5-3.5-6.6l2-1.5c4.5 4 8.7 9 11.7 14zm-12.5-33.6h-7.1v-2.9h9.5c1.7 8.9 7.1 14.3 13.3 17.7l-4.5 6.2c-6.1-4.5-10-12.5-11.2-21z"/><path class="e" d="m183.1 78.7h9.9c-0.2 5.5-0.7 10.1-1.3 12.9-0.8 4.2-5.6 6.8-12 1.5l0.8-2c4.7 1.2 5.7 1.1 6.2-1.4 0.4-2 0.7-5 0.8-8.2h-4.9c-1.9 8.7-7.1 13.2-14.1 15l-0.9-2c5.8-3.2 8.6-6.8 9.8-13h-6.9v-2.7h7.3c0.1-1.1 0.2-2.3 0.3-3.5-2 1-4.2 1.6-6.5 2.2l-0.5-1.7c-0.8 0.8-1.5 1.6-2.3 2.2l-1.5-1.1v14.1c0 4.4-4.3 7-11.3 2.9l0.6-2.1c4.6 0.8 5.7 0.5 5.7-1.7v-9.6c-1.6 3.2-3.9 6.3-7.2 9.1l-1.4-1.7c3.8-4.6 6.2-9.7 7.9-16.5h-7.2v-2.6h9.2c-1.7-2.6-3.7-5.1-5.4-7l1.3-1.5c1.6 0.9 3.1 1.9 4.6 3 1.3-1.5 2.3-3 3.2-4.7h-12v-2.6h11.9l1.6-1 5 3.2c-2 2.5-4.9 5-7.7 6.8q1 1 2.1 2.1l-2.1 1.7h2.9l1.4-0.9 4.5 2.5c-0.8 1.6-2 3.3-3.3 4.7 3.8-1.5 6.7-3.4 8.9-5.7-1.5-1.7-2.9-3.5-3.7-5.3-1.1 1.4-2.3 2.7-3.6 3.7l-1.6-1.4c2.9-4.5 4.2-8.2 5.1-13l5.1 1.3c-0.4 1.2-0.9 2.5-1.5 3.8h13.7v2.7h-3.3c-0.9 3-2.4 5.6-4.3 7.8 2.4 1.2 5.3 2.2 8.6 2.9l-2.2 5.2c-3.4-0.9-6.8-2.8-9.6-5.1-1.4 1.1-2.9 2-4.6 2.9h4.7c0.1 1.3 0 2.6-0.2 3.8zm-14-7.3h-1.8v4.8c0.7-1.5 1.5-3.3 1.8-4.8zm13.7-4.7c1.1-1.7 1.9-3.5 2.4-5.5h-6.4l-0.4 0.6c1.3 2 2.7 3.6 4.4 4.9z"/><path class="e" d="m238 76.7v19.3h-5.7v-3.6h-23.1v3.6h-5.7v-19.3h5.7v12.7h8.5v-15.6h-12.2v-16h5.6v13h6.6v-16.5h6v16.5h6.8v-13h5.6v15.9h-12.4v15.6h8.5v-12.6z"/><path class="e" d="m285.5 55.5v40.5h-5.5v-2h-25.7v2h-5.5v-40.5zm-5.5 2.8h-6c1.4 1.1 3.3 3.1 4.3 4.8l-2 1.2h2.8v2.7h-7.6c0.1 3.4 0.4 6.4 0.8 8.9 0.9-2.2 1.6-4.6 2.2-7.3l3.9 1.3c-1 4.1-2.7 8-5 11.3 0.6 1.5 1.2 2.5 2 2.9 0.7 0.4 1-1.1 1-5.6h2.1c1.5 9.2-0.1 11.6-3.2 11-2.2-0.5-3.9-2.2-5.1-4.6-2.3 2.3-5.1 4.1-8.3 5.4l-1-1.9c3.4-2.1 6-4.3 8.1-6.9-1.2-4.1-1.7-9.2-1.9-14.5h-12.1v-2.7h12.2c0-1.7-0.1-3.4-0.1-5h4.4c0 1.7 0 3.4 0 5h3.1c-0.8-1.8-1.7-3.6-2.4-5l1.5-1h-19.5v32.8h25.8zm-24.3 29.4l-1.4-4.4c4.5-0.7 9.4-2.1 13-3.3l0.8 1.9c-3.5 2.3-8.3 4.6-12.4 5.8zm0.3-18.3h10.2v10.1h-10.2zm3.8 7.7h2.8v-5.1h-2.8z"/><path class="e" d="m306.3 66.3h6.8v2.7h-4.9l3.6 1.4c-0.9 1.5-2.6 3.8-4.3 5.5h4.8v2.8h-5.8v4.8h6.6v2.8h-6.6v9.8h-5.7v-9.8h-7.2v-2.8h7.2v-4.8h-6.1v-2.7h3.7c-0.8-2-1.9-4.6-2.6-6.2l1.2-0.8h-3.3v-2.8h6.9v-3.9h-5.8v-2.8h5.8v-5.5h5.6v5.5h5.9v2.8h-5.9v4zm-8.2 2.7c1.8 1.6 3.9 4 4.9 5.8l-2.3 1.2h3.4c0.9-2.1 1.9-4.8 2.4-7zm36.2 21.8l-3.1 5.1c-1.9-1.3-3.9-2.9-5.6-4.9-1.5 1.8-3.3 3.4-5.3 4.8l-1.3-1.8v2.2h-5.5v-40.1h18.1c0.1 3.7 0 6.8 0 9.4-0.2 5.3-5.1 5.8-11.2 3.2l0.4-2.3c4.6 0.7 5.4 0 5.5-1.9 0.1-1.6 0.1-3.5 0.1-5.6h-7.3v13.9h7.3l1.2-1.1 4.9 1.5c-0.7 5.3-2 9.9-4.1 13.7 1.8 1.4 3.8 2.8 5.9 3.9zm-10.9-2.9c-2-3.3-3.5-7.4-4.1-12.5h-0.2v18.2c1.8-1.8 3.2-3.7 4.3-5.7zm-1.9-12.5c0.9 3.3 2.2 5.8 3.8 8 0.8-2.4 1.3-5 1.7-8z"/><path class="e" d="m380 72.4v2.9h-40v-2.9h17v-7.6h-7.4c-1.8 2.5-3.9 4.8-6 6.5l-1.7-1.6c2.9-4.1 5.3-10.1 6.5-15.6l5.8 1.8c-0.7 2.1-1.7 4.1-2.8 6.1h5.6v-8h6.1v8h13v2.9h-13v7.6h16.9zm-34.5 6.7h29.2v16.9h-5.9v-2.8h-17.4v2.9h-5.9zm5.9 11.2h17.4v-8.3h-17.4z"/><path class="e" d="m389.3 73l-2.9-4.5c3.4-1.6 6.8-3.5 9.7-5.7l1.5 1.5c-2.2 3.2-4.9 6.1-8.3 8.7zm12.5 15.2l3.6 3c-4.4 2.4-11.1 4.3-17.8 5.1l-0.7-2.1c5.3-1.6 9.2-3.6 12.8-6h-7.7v-16.9h29v16.9zm-6.3-26.1c-2.4-1.9-5.3-4-7.5-5.4l0.9-2c2.5 0.5 6.6 1.7 9.5 3.1zm2.1 1.7c2.2-2.7 3.8-6 4.9-10.3l4.9 1.1c-0.4 0.9-0.8 1.8-1.3 2.7h12.9l1.3-0.9 4.4 2.9c-1.9 2.3-4.2 4.1-6.5 5.5l-1.4-1.3c0.9-1.4 1.4-2.2 1.9-3.6h-4.9c-0.2 0.8-0.5 1.4-0.9 2.2 3.6 3.2 8 4.2 12.9 4.6l-1.8 4.8c-4.2-0.6-9.4-3.2-12.3-7.4-2.9 4-7.7 6.4-14 6.8l-0.5-1.9c6.5-1.8 9.5-4.8 10.9-9.1h-3.7c-1.6 2.2-3.6 4.1-5.4 5.3zm0.2 12.3h17.4v-2.2h-17.4zm0 4.6h17.4v-2.2h-17.4zm0 4.9h17.4v-2.4h-17.4zm28.1 5.6l-2.4 5.3c-4.3-2.1-10.3-4.4-14.8-6l0.8-2.4c4.8 0.6 11.1 1.5 16.4 3.1z"/><path class="e" d="m449.9 64.6h-17v-2.9h7.4c-1.4-2.5-2.9-4.9-4-6.6l1.5-1.5c2.5 1.5 5.3 4 7.3 6.4l-2.4 1.8h7.1v2.8zm-15.6 16h14.3v14.8h-5v-2.5h-4.4v3h-4.9zm14.1-9.7h-14.1v-2.7h14.1zm-14.1 3.3h14.1v2.8h-14.1zm4.9 15.9h4.4v-6.8h-4.4zm29.8 5.6c-5.5-1.9-5.8-12.4-5.8-27.9v-8.3h-4.4v13h3.6v2.8h-3.6v20.7h-5.6v-20.8h-3.9v-2.8h3.9v-13h-4.1v-2.8h19.4v11.9c0 13.9 0.7 20.5 1.5 20.8 0.7 0.3 0.8-0.8 0.7-7.2h2.3c2.4 11.8-0.1 14.9-4 13.6z"/><path class="e" d="m484 82.5c0.3 4.6 0 10-0.8 13.2l-4.9-1.8c1.7-2.9 2.9-7.1 3.7-11.6zm34-26.3v35.2c0 4.7-4.7 6.4-11.9 2.2l0.6-2c5.8 0.9 6.4 0.5 6.4-1.8v-2.7c-1.4 1.5-3.1 1.9-5.7 1.9-4.5 0-5.6-0.7-5.6-4.8v-5.9h-1.4v-2.6h4.9c-0.7-2-1.4-3.6-2-5.1l1-0.6h-4v-2.5h2.1c-0.5-2.4-1-4.6-1.8-6.9l1.9-0.9c1.4 1.9 2.7 4.2 3.7 6.6l-3.1 1.2h3.7c0.8-2.4 1.4-5 1.9-7.7l4.1 1.3c-1 2.3-2.1 4.5-3.3 6.4h3v2.5h-6.5c1.3 1.4 2.4 3 3.4 4.7l-2.3 1h5.4v2.6h-6.2v5c0 1.5 0.5 1.6 1.9 1.6 1 0 1.9-0.1 3-1.1l1.9 2.4v-27.3h-13.4v37.1h-4.8v-6l-3.9 1.5c-0.7-3-1.7-6.9-2.6-9.9l1.9-0.8c1.8 2.5 3.6 5.8 4.6 8.3v-9l-3.1 1.4c-0.3-1.1-0.6-2.4-1-3.6-3.8 1.9-7.4 2.9-10.5 3.5l-1.3-5.1c1.1 0 2.2 0 3.2 0 1.5-2.1 2.9-4.6 4.2-7.2-2.2 0.9-4.3 1.5-6.3 1.9l-1-5.1c0.9 0 1.6 0.1 2.4 0.1 1.3-3.7 2.3-7.7 3.2-12.3l5.4 1.4c-1.7 4.1-3.8 8-5.9 10.9 1.2 0 2.4-0.1 3.6-0.2 0.8-1.7 1.5-3.5 2.2-5.4l4.8 2.1v-6.3zm-31 25.8c1.2 3.2 2.5 8.2 3.1 11.3l-4.8 0.7c0.1-3-0.1-8.2-0.3-11.6zm7.8-4.1v-15.3c-2.4 4.8-5.9 10-9.3 13.6 1.5-0.1 3-0.3 4.4-0.5-0.4-1-0.7-1.9-1-2.8l1.9-1c1.5 1.5 2.9 3.8 4 6z"/></svg>