<?xml version="1.0" encoding="UTF-8"?>
<svg id="home" xmlns="http://www.w3.org/2000/svg" baseProfile="tiny" version="1.2" viewBox="0 0 32 32">
  <!-- Generator: Adobe Illustrator 29.4.0, SVG Export Plug-In . SVG Version: 2.1.0 Build 152)  -->
  <g id="Layer_1_copy_10">
    <g id="_45">
      <path d="M26.4,9.3h-9.7v-1.9c0-1.8-1.4-3.2-3.2-3.2H5c-1.8,0-3.2,1.4-3.2,3.2v17.3c0,1.8,1.4,3.2,3.2,3.2h21.4c1.8,0,3.2-1.4,3.2-3.2v-12.3c0-1.8-1.4-3.2-3.2-3.2h0ZM19.3,20.8h-1.5v1.5c0,1.2-.9,2.1-2.1,2.1s-2.1-.9-2.1-2.1v-1.5h-1.5c-1.2,0-2.1-1-2.1-2.1s.9-2.1,2.1-2.1h1.5v-1.5c0-1.2.9-2.1,2.1-2.1s2.1.9,2.1,2.1v1.5h1.6c1.2,0,2.1,1,2.1,2.1s-.9,2.1-2.1,2.1h-.1Z" fill="#be0483"/>
    </g>
  </g>
</svg>