<?xml version="1.0" encoding="UTF-8"?>
<svg id="home" xmlns="http://www.w3.org/2000/svg" baseProfile="tiny" version="1.2" viewBox="0 0 32 32">
  <!-- Generator: Adobe Illustrator 29.4.0, SVG Export Plug-In . SVG Version: 2.1.0 Build 152)  -->
  <path d="M20.5,12.6h-8.8c0,1.1-.2,2.4-.2,3.6s0,2.4.2,3.6h8.8c0-1.1.2-2.4.2-3.6s0-2.4-.2-3.6h0Z" fill="#be0483"/>
  <path d="M12.1,22.7c.4,1.3.7,2.6,1.1,3.6,1.1,2.6,2.2,3.6,2.8,3.6s1.5-.9,2.8-3.6c.4-1.1.9-2.2,1.1-3.6h-7.9Z" fill="#be0483"/>
  <path d="M21.6,4.6c.6,1.5,1.1,3.2,1.5,4.9h5.2c-1.7-3-4.1-5.2-7.3-6.4.2.6.6.9.7,1.5h-.2Z" fill="#be0483"/>
  <path d="M23.7,16.1c0,1.1,0,2.4-.2,3.6h6c.4-1.1.6-2.4.6-3.6s0-2.4-.6-3.6h-6c0,1.1.2,2.4.2,3.6Z" fill="#be0483"/>
  <path d="M8.3,16.1c0-1.1,0-2.4.2-3.6H2.5c-.4,1.1-.6,2.4-.6,3.6s0,2.4.6,3.6h6c0-1.1-.2-2.4-.2-3.6Z" fill="#be0483"/>
  <path d="M19.9,9.4c-.4-1.3-.7-2.6-1.1-3.6-1.1-2.6-2.2-3.6-2.8-3.6s-1.5.9-2.8,3.6c-.4,1.1-.9,2.2-1.1,3.6h7.9Z" fill="#be0483"/>
  <path d="M23.1,22.7c-.4,1.7-.9,3.4-1.5,4.9-.2.6-.6,1.1-.7,1.5,3.2-1.1,5.8-3.4,7.3-6.4h-5.2.2Z" fill="#be0483"/>
  <path d="M10.4,27.5c-.6-1.5-1.1-3.2-1.5-4.9H3.7c1.7,3,4.1,5.2,7.3,6.4-.2-.6-.6-.9-.7-1.5h.2Z" fill="#be0483"/>
  <path d="M8.9,9.4c.4-1.7.9-3.4,1.5-4.9.2-.6.6-1.1.7-1.5-3.2,1.1-5.8,3.4-7.3,6.4h5.2-.2Z" fill="#be0483"/>
</svg>