<?xml version="1.0" encoding="UTF-8"?>
<svg id="home" xmlns="http://www.w3.org/2000/svg" baseProfile="tiny" version="1.2" viewBox="0 0 32 32">
  <!-- Generator: Adobe Illustrator 29.4.0, SVG Export Plug-In . SVG Version: 2.1.0 Build 152)  -->
  <path d="M20,2.3H5.1c-1.4,0-2.6,1.1-2.6,2.6v22.7c0,1.4,1.2,2.6,2.6,2.6h14.9c1.5,0,2.6-1.2,2.6-2.6V4.9c0-1.5-1.1-2.6-2.6-2.6ZM12.1,25.9h-5.2c-.5,0-.9-.3-.9-.9s.3-.9.9-.9h5.2c.5,0,.9.3.9.9s-.3.9-.9.9ZM17.9,22.4H6.9c-.5,0-.9-.3-.9-.9s.3-.9.9-.9h11c.5,0,.9.3.9.9s-.4.9-.9.9ZM18.2,18.9H6.8c-.5,0-.9-.3-.9-.9s.3-.9.9-.9h11.4c.5,0,.9.3.9.9s-.3.9-.9.9ZM18.2,15.4H6.8c-.5,0-.9-.3-.9-.9s.3-.9.9-.9h11.4c.5,0,.9.3.9.9s-.3.9-.9.9ZM18.2,11.9H6.8c-.5,0-.9-.3-.9-.9s.3-.9.9-.9h11.4c.5,0,.9.3.9.9s-.3.9-.9.9ZM18.2,8.4H6.8c-.5,0-.9-.3-.9-.9s.3-.9.9-.9h11.4c.5,0,.9.3.9.9s-.3.9-.9.9Z" fill="#be0483"/>
  <g>
    <path d="M29.6,5.8v1.7h-5.2v-1.7c0-1.5,1.2-2.6,2.6-2.6s2.6,1.1,2.6,2.6Z" fill="#be0483"/>
    <path d="M24.3,9.2h5.2v15.9l-1.7,3.7c-.2.3-.4.5-.8.5s-.6-.2-.8-.5l-1.7-3.7v-15.9h-.2Z" fill="#be0483"/>
  </g>
</svg>