<?xml version="1.0" encoding="UTF-8"?>
<svg id="home" xmlns="http://www.w3.org/2000/svg" baseProfile="tiny" version="1.2" viewBox="0 0 32 32">
  <!-- Generator: Adobe Illustrator 29.4.0, SVG Export Plug-In . SVG Version: 2.1.0 Build 152)  -->
  <path d="M22.9,16.3c-3.8,0-6.8,3-6.8,6.8s3,6.8,6.8,6.8,6.8-3,6.8-6.8-3.1-6.8-6.8-6.8ZM26,21.9l-3.4,3.4c-.2.2-.4.3-.6.3s-.4,0-.6-.3l-1.7-1.7c-.3-.3-.3-.9,0-1.2s.9-.3,1.2,0l1.1,1.1,2.8-2.8c.3-.3.9-.3,1.2,0s.3.9,0,1.2h0Z" fill="#be0483"/>
  <path d="M19.5,2.5H5c-1.5,0-2.6,1.2-2.6,2.6v20.5c0,1.5,1.1,2.6,2.6,2.6h11.1c-1-1.4-1.7-3.2-1.7-5s0-.6,0-.9h-7.8c-.5,0-.9-.3-.9-.9s.3-.9.9-.9h8.2c.2-.6.4-1.2.8-1.7H6.6c-.5,0-.9-.3-.9-.9s.3-.9.9-.9h10.4c1.4-1.3,3.1-2.1,5-2.4V5c0-1.4-1.2-2.6-2.6-2.6h0ZM6.7,6.8h6.8c.4,0,.9.4.9.9s-.4.9-.9.9h-6.8c-.5,0-.9-.3-.9-.9s.3-.9.9-.9ZM17.8,15.3H6.7c-.5,0-.9-.3-.9-.9s.3-.9.9-.9h11.1c.4,0,.9.4.9.9s-.4.9-.9.9ZM17.8,11.9H6.7c-.5,0-.9-.3-.9-.9s.3-.9.9-.9h11.1c.4,0,.9.4.9.9s-.4.9-.9.9Z" fill="#be0483"/>
</svg>